{"title":"Wiz Khalifa - Paperbond [Music Video] 720p [Sbyky]","uid":9261058,"size":53237305,"categoryP":"video","categoryS":"music_videos","magnet":"?xt=urn:btih:41ffc632afa0d0784a07b08ba74842e43740155b&amp;dn=Wiz+Khalifa+-+Paperbond+%5BMusic+Video%5D+720p+%5BSbyky%5D&amp;tr=udp%3A%2F%2Ftracker.openbittorrent.com%3A80&amp;tr=udp%3A%2F%2Fopen.demonii.com%3A1337&amp;tr=udp%3A%2F%2Ftracker.coppersurfer.tk%3A6969&amp;tr=udp%3A%2F%2Fexodus.desync.com%3A6969","seeders":1,"leechers":1,"uploader":"Sbyky","files":1,"time":1385625171,"description":"[IMG]http://cdn.piczend.com/images/RFqo4PVj/1385609193_paperbond.jpg[/IMG]\n\nGeneral\nComplete name                            : Wiz Khalifa - Paperbond [Music Video] 720p [Sbyky].MP4\nFormat                                   : MPEG-4\nFormat profile                           : Base Media / Version 2\nCodec ID                                 : mp42\nFile size                                : 50.8 MiB\nDuration                                 : 4mn 37s\nOverall bit rate mode                    : Variable\nOverall bit rate                         : 1 536 Kbps\nEncoded date                             : UTC 2013-06-10 18:03:14\nTagged date                              : UTC 2013-06-10 18:03:14\n\nVideo\nID                                       : 1\nFormat                                   : AVC\nFormat/Info                              : Advanced Video Codec\nFormat profile                           : &lt;a class=&quot;__cf_email__&quot; href=&quot;/cdn-cgi/l/email-protection&quot; data-cfemail=&quot;1b53727c735b5728352a&quot;&gt;[email&amp;#160;protected]&lt;/a&gt;&lt;script cf-hash='f9e31' type=&quot;text/javascript&quot;&gt;\n/* &lt;![CDATA[ */!function(){try{var t=&quot;currentScript&quot;in document?document.currentScript:function(){for(var t=document.getElementsByTagName(&quot;script&quot;),e=t.length;e--;)if(t[e].getAttribute(&quot;cf-hash&quot;))return t[e]}();if(t&amp;&amp;t.previousSibling){var e,r,n,i,c=t.previousSibling,a=c.getAttribute(&quot;data-cfemail&quot;);if(a){for(e=&quot;&quot;,r=parseInt(a.substr(0,2),16),n=2;a.length-n;n+=2)i=parseInt(a.substr(n,2),16)^r,e+=String.fromCharCode(i);e=document.createTextNode(e),c.parentNode.replaceChild(e,c)}}}catch(u){}}();/* ]]&gt; */&lt;/script&gt;\nFormat settings, CABAC                   : Yes\nFormat settings, ReFrames                : 1 frame\nCodec ID                                 : avc1\nCodec ID/Info                            : Advanced Video Coding\nDuration                                 : 4mn 37s\nBit rate                                 : 1 341 Kbps\nMaximum bit rate                         : 3 441 Kbps\nWidth                                    : 1 280 pixels\nHeight                                   : 676 pixels\nDisplay aspect ratio                     : 1.893\nFrame rate mode                          : Constant\nFrame rate                               : 23.976 fps\nColor space                              : YUV\nChroma subsampling                       : 4:2:0\nBit depth                                : 8 bits\nScan type                                : Progressive\nBits/(Pixel*Frame)                       : 0.065\nStream size                              : 44.3 MiB (87%)\nTagged date                              : UTC 2013-06-10 18:03:17\n\nAudio\nID                                       : 2\nFormat                                   : AAC\nFormat/Info                              : Advanced Audio Codec\nFormat profile                           : LC\nCodec ID                                 : 40\nDuration                                 : 4mn 37s\nBit rate mode                            : Variable\nBit rate                                 : 192 Kbps\nMaximum bit rate                         : 202 Kbps\nChannel(s)                               : 2 channels\nChannel positions                        : Front: L R\nSampling rate                            : 44.1 KHz\nCompression mode                         : Lossy\nStream size                              : 6.35 MiB (13%)\nTitle                                    : IsoMedia File Produced by Google, 5-11-2011\nEncoded date                             : UTC 2013-06-10 18:03:15\nTagged date                              : UTC 2013-06-10 18:03:17\n\nShared By Sbyky\n[IMG]http://cdn.piczend.com/images/X3Ag13N3/1379453786_saythanks.gif[/IMG]\n[IMG]http://cdn.piczend.com/images/gGqhX2S8/1379453780_keepseeding.gif[/IMG]","torrent":{"xt":"urn:btih:41ffc632afa0d0784a07b08ba74842e43740155b","amp;dn":"Wiz+Khalifa+-+Paperbond+%5BMusic+Video%5D+720p+%5BSbyky%5D","amp;tr":["udp%3A%2F%2Ftracker.openbittorrent.com%3A80","udp%3A%2F%2Fopen.demonii.com%3A1337","udp%3A%2F%2Ftracker.coppersurfer.tk%3A6969","udp%3A%2F%2Fexodus.desync.com%3A6969"],"infoHash":"41ffc632afa0d0784a07b08ba74842e43740155b","infoHashBuffer":{"type":"Buffer","data":[65,255,198,50,175,160,208,120,74,7,176,139,167,72,66,228,55,64,21,91]},"announce":[],"urlList":[]}}